PathFileType	4	(X/Y/Z)	Trial61_Right_Ankle_markers_cropped.trc																																																																			
DataRate	CameraRate	NumFrames	NumMarkers	Units	OrigDataRate	OrigDataStartFrame	OrigNumFrames																																																															
200	200	12	23	m	200	0	404																																																															
Frame#	Time	R_ASIS			L_ASIS			Sacral			L_Thigh_Superior			L_Thigh_Inferior			L_Thigh_Lateral			L_Shank_Superior			L_Shank_Inferior			L_Shank_Lateral			L_Heel			L_Midfoot_Superior			L_Midfoot_Lateral			L_Toe			R_Thigh_Superior			R_Thigh_Inferior			R_Thigh_Lateral			R_Shank_Superior			R_Shank_Lateral			R_Shank_Inferior			R_Heel			R_Midfoot_Superior			R_Midfoot_Lateral			R_Toe		
		X1	Y1	Z1	X2	Y2	Z2	X3	Y3	Z3	X4	Y4	Z4	X5	Y5	Z5	X6	Y6	Z6	X7	Y7	Z7	X8	Y8	Z8	X9	Y9	Z9	X10	Y10	Z10	X11	Y11	Z11	X12	Y12	Z12	X13	Y13	Z13	X14	Y14	Z14	X15	Y15	Z15	X16	Y16	Z16	X17	Y17	Z17	X18	Y18	Z18	X19	Y19	Z19	X20	Y20	Z20	X21	Y21	Z21	X22	Y22	Z22	X23	Y23	Z23
																																																																						
1	0.000	-0.471538431	0.956438998	-0.519807296	-0.443412004	0.956175268	-0.789205947	-0.682790132	0.992788995	-0.677483649	-0.415090327	0.737734861	-0.748803201	-0.443857582	0.543731023	-0.737185964	-0.510184493	0.631403638	-0.807689237	-0.475906795	0.406718079	-0.724577089	-0.510925741	0.185594311	-0.68608979	-0.568122099	0.290520276	-0.76065726	-0.627803255	0.03172414	-0.617112648	-0.48200553	0.088917877	-0.698422331	-0.568345387	0.028939194	-0.71021482	-0.359134562	0.037184776	-0.745613769	-0.363513898	0.811222105	-0.546568659	-0.299484982	0.667971721	-0.566003674	-0.391436322	0.67826783	-0.486744886	-0.233814716	0.510927018	-0.544862648	-0.144706443	0.335675371	-0.540573939	-0.23964535	0.383919251	-0.483907447	-0.176709713	0.140428518	-0.558323857	-0.020893556	0.236707978	-0.552973142	-0.071875176	0.140459099	-0.519463564	0.110576498	0.218120342	-0.583493997
2	0.005	-0.471927457	0.956195136	-0.519970507	-0.443831717	0.956174848	-0.789411522	-0.683129455	0.992847945	-0.677699437	-0.415498137	0.73772413	-0.749146131	-0.444201707	0.543706879	-0.737480871	-0.510624195	0.63136262	-0.807948938	-0.476149695	0.40691776	-0.724993572	-0.511051842	0.185588395	-0.686138445	-0.568334312	0.290454555	-0.760780666	-0.627811152	0.031712617	-0.617107564	-0.482069953	0.088932059	-0.698441606	-0.568363413	0.028926742	-0.710209721	-0.359185522	0.037326311	-0.745625141	-0.364013344	0.810906289	-0.546681684	-0.300040074	0.667737634	-0.566031474	-0.392139456	0.677994238	-0.486962263	-0.234416712	0.51066387	-0.544894296	-0.145300852	0.335423084	-0.540751823	-0.240355988	0.383562806	-0.484156221	-0.176180784	0.139054055	-0.560317592	-0.022278524	0.237591839	-0.551074513	-0.072976568	0.140880756	-0.518320317	0.109811305	0.220831031	-0.577246868
3	0.010	-0.472318494	0.9559484	-0.520133161	-0.444253538	0.956172889	-0.789621738	-0.683471473	0.992904264	-0.677917594	-0.41590933	0.737713614	-0.749488441	-0.444548427	0.543682111	-0.737774983	-0.511065126	0.631321916	-0.808211675	-0.476386982	0.407123507	-0.725413901	-0.511180385	0.185580014	-0.686185769	-0.568548627	0.290387941	-0.760905949	-0.627819098	0.031701121	-0.617102601	-0.482134627	0.088946116	-0.698460977	-0.568381403	0.028914156	-0.710204807	-0.359236337	0.037468184	-0.745636447	-0.36451172	0.810595648	-0.546787036	-0.300585584	0.66751171	-0.566047547	-0.392838986	0.677725804	-0.487171738	-0.235008027	0.510407703	-0.544911808	-0.14588952	0.335176093	-0.540908934	-0.241060385	0.383214405	-0.484388935	-0.175656115	0.137696408	-0.562281518	-0.023664216	0.238465927	-0.549160752	-0.074092802	0.141303054	-0.517156485	0.10902396	0.223511529	-0.570992782
4	0.015	-0.472713191	0.955695666	-0.520295268	-0.444680159	0.956167553	-0.789842315	-0.68381925	0.992954438	-0.678141216	-0.416327381	0.737703637	-0.7498296	-0.44490061	0.543656161	-0.738068049	-0.511508068	0.631281808	-0.808481143	-0.476612194	0.407341084	-0.725841251	-0.511313275	0.185566907	-0.686230939	-0.568767038	0.29031944	-0.761035301	-0.627827097	0.031689696	-0.617097892	-0.482199695	0.088959831	-0.698480478	-0.568399216	0.02890125	-0.710200257	-0.359286638	0.037610566	-0.745647603	-0.36500756	0.810296594	-0.546877183	-0.301109892	0.667303796	-0.566039453	-0.393528873	0.677469926	-0.487363886	-0.235575505	0.510166891	-0.544898866	-0.146465298	0.334940874	-0.541019975	-0.241749951	0.382884285	-0.484585234	-0.175140277	0.136375056	-0.564174044	-0.025051875	0.239319184	-0.547216796	-0.075239952	0.141727974	-0.515946694	0.108185989	0.226127187	-0.564731116
5	0.020	-0.473112046	0.955434798	-0.520458058	-0.445114512	0.956157108	-0.790078837	-0.684175444	0.992994679	-0.678373592	-0.416754866	0.737694527	-0.750169582	-0.445260628	0.543628861	-0.738360979	-0.511952938	0.631242423	-0.808760744	-0.476820804	0.40757277	-0.726276095	-0.511450612	0.185548198	-0.686274506	-0.568990529	0.290248216	-0.761170694	-0.627835062	0.031678381	-0.617093542	-0.482265044	0.088972899	-0.698500001	-0.568416595	0.028887816	-0.710196154	-0.359335835	0.037753261	-0.745658475	-0.365499099	0.810015476	-0.546947601	-0.301601755	0.667123308	-0.565997936	-0.394200701	0.677235326	-0.487529974	-0.236106167	0.509949278	-0.544841031	-0.147020873	0.334723554	-0.541060782	-0.242414788	0.382582834	-0.484724544	-0.174636038	0.13510706	-0.565948248	-0.026443591	0.24014263	-0.54523212	-0.076430828	0.142159181	-0.514666292	0.1072669	0.228649125	-0.5584703
6	0.025	-0.473514097	0.95516579	-0.520624371	-0.445559368	0.956140281	-0.790335603	-0.684541692	0.993021743	-0.678617554	-0.417193013	0.737686427	-0.750509193	-0.445629715	0.543600594	-0.738655926	-0.512398958	0.631203684	-0.809052633	-0.477013218	0.407814815	-0.726715024	-0.511590198	0.185525038	-0.686318744	-0.569218583	0.290173752	-0.761313426	-0.62784282	0.031667198	-0.617089614	-0.482330279	0.088984956	-0.698519277	-0.568433238	0.028873692	-0.710192433	-0.359383246	0.037895654	-0.745668834	-0.365984405	0.809757261	-0.546998612	-0.302052584	0.666977225	-0.56591966	-0.394844623	0.677030428	-0.487664034	-0.236589905	0.509760286	-0.544729173	-0.14754991	0.334528313	-0.541014021	-0.243045188	0.382318311	-0.484790628	-0.174142004	0.133902657	-0.567561714	-0.027842411	0.240932362	-0.543202753	-0.077671625	0.14260158	-0.513297127	0.106238748	0.231063784	-0.552224923
7	0.030	-0.473917141	0.954891156	-0.520798765	-0.44601708	0.956116419	-0.790615246	-0.684918444	0.993033493	-0.678875059	-0.417641881	0.737679133	-0.750850195	-0.446007659	0.543572189	-0.738955786	-0.51284513	0.631165293	-0.809357359	-0.477195911	0.408057033	-0.727151053	-0.511728084	0.185500334	-0.686367372	-0.569449306	0.290095836	-0.76146404	-0.627850162	0.031656176	-0.617086134	-0.482394843	0.088995626	-0.698537923	-0.568448875	0.028858813	-0.710188927	-0.35942822	0.038036815	-0.745678354	-0.366461386	0.809524892	-0.547035618	-0.302457506	0.666869088	-0.565807751	-0.395450562	0.676862026	-0.487763793	-0.23702084	0.509602049	-0.544560722	-0.148047445	0.334356637	-0.540871979	-0.243632719	0.382095615	-0.484774161	-0.173651049	0.132763946	-0.568983844	-0.029251989	0.241690648	-0.541130515	-0.078961082	0.143060501	-0.511830528	0.105078488	0.23337696	-0.546010182
8	0.035	-0.474318049	0.954615506	-0.520987284	-0.446489353	0.956085532	-0.790918962	-0.685305059	0.993029159	-0.679146931	-0.418100552	0.737672142	-0.751195357	-0.44639271	0.543544618	-0.73926335	-0.513290585	0.631126717	-0.8096741	-0.4773799	0.408284872	-0.727575247	-0.511859733	0.185477872	-0.686424828	-0.569679869	0.290014486	-0.761622496	-0.627856886	0.031645371	-0.617083103	-0.482458196	0.089004577	-0.698555567	-0.568463314	0.028843227	-0.710185456	-0.359470232	0.038175655	-0.745686671	-0.366927742	0.809319171	-0.547068337	-0.302815626	0.666798726	-0.565670938	-0.396009535	0.676734487	-0.48783077	-0.237397705	0.509473428	-0.544339354	-0.148509869	0.334207441	-0.540636768	-0.244171022	0.381915957	-0.48467354	-0.173149895	0.131686133	-0.570199887	-0.030675734	0.24242533	-0.539021109	-0.080291264	0.143540825	-0.510267992	0.103769061	0.235612545	-0.539837062
9	0.040	-0.474712974	0.954344589	-0.521196794	-0.44697695	0.956048341	-0.791247065	-0.685700017	0.993009335	-0.679432711	-0.418567039	0.737664945	-0.751548429	-0.446781645	0.543518661	-0.739580458	-0.51373463	0.631087176	-0.810001209	-0.477577098	0.408483122	-0.727978932	-0.511981236	0.18546122	-0.6864953	-0.569906986	0.289929882	-0.761788418	-0.627862836	0.03163487	-0.617080512	-0.482519968	0.089011627	-0.698571974	-0.568476458	0.02882709	-0.710181917	-0.359508928	0.038311081	-0.745693448	-0.367380983	0.809138978	-0.547109455	-0.303129861	0.666762527	-0.565521922	-0.396514944	0.676649497	-0.487869817	-0.237723581	0.50937071	-0.544073523	-0.148934709	0.33407794	-0.540318405	-0.244656383	0.381777092	-0.484494337	-0.172620107	0.130660467	-0.571211592	-0.03211557	0.243148008	-0.536882212	-0.081649189	0.144046232	-0.508620302	0.102299968	0.237806849	-0.533710245
10	0.045	-0.475097579	0.954084225	-0.521434075	-0.447479307	0.95600633	-0.791599564	-0.686101189	0.992975811	-0.679730613	-0.419038047	0.737657408	-0.751913901	-0.447170026	0.543494647	-0.739907478	-0.514176634	0.631045666	-0.81033676	-0.477796777	0.408639172	-0.728355294	-0.51209017	0.18545276	-0.686581717	-0.570127292	0.289842361	-0.761961207	-0.62786792	0.031624792	-0.617078363	-0.482580005	0.089016867	-0.698587166	-0.568488288	0.028810661	-0.710178307	-0.35954416	0.038442098	-0.745698452	-0.367818547	0.808981659	-0.547172988	-0.303406602	0.666754115	-0.565375332	-0.396963601	0.676606203	-0.48788832	-0.238005178	0.509288704	-0.543774223	-0.149320321	0.333964891	-0.539931514	-0.245088125	0.381673895	-0.48424785	-0.172040448	0.129677916	-0.572034861	-0.033570517	0.243871636	-0.534722168	-0.083018753	0.144578703	-0.506905643	0.100667837	0.240000178	-0.527629369
11	0.050	-0.475467429	0.95383948	-0.521704851	-0.447994279	0.955961755	-0.791976594	-0.686506094	0.992931286	-0.680037651	-0.419509036	0.737649948	-0.752296382	-0.447552659	0.543472379	-0.74024334	-0.514615854	0.63100104	-0.810678844	-0.478043648	0.408744472	-0.728699777	-0.512185913	0.185453124	-0.686684969	-0.570337653	0.289752471	-0.762140012	-0.627872107	0.031615261	-0.61707667	-0.482638315	0.089020746	-0.69860146	-0.568498848	0.028794303	-0.710174718	-0.359576022	0.038567849	-0.745701612	-0.368238057	0.808843439	-0.547272531	-0.303655109	0.666765335	-0.565245549	-0.39735626	0.676601584	-0.487895222	-0.238251772	0.509221865	-0.543452514	-0.149665567	0.333865725	-0.539491678	-0.245468749	0.381599114	-0.483949148	-0.171390105	0.128732475	-0.572695318	-0.035035526	0.244608118	-0.532549519	-0.084382503	0.145138321	-0.50514717	0.09887703	0.242227982	-0.521593074
12	0.055	-0.475818441	0.953614165	-0.522012971	-0.448518159	0.955917538	-0.792378651	-0.686912085	0.992878971	-0.680350008	-0.41997484	0.737643419	-0.752699728	-0.447924225	0.54345126	-0.740586135	-0.515051275	0.63095215	-0.811025624	-0.478317642	0.408794302	-0.729009544	-0.512269425	0.18546117	-0.686803684	-0.57053547	0.289661026	-0.762323668	-0.627875427	0.03160639	-0.617075457	-0.48269496	0.089024081	-0.698615454	-0.568508235	0.028778464	-0.710171301	-0.359604869	0.038687583	-0.745703039	-0.368637749	0.808719813	-0.547419594	-0.30388647	0.666787452	-0.565144674	-0.397697564	0.676630915	-0.48789994	-0.238473862	0.509165197	-0.543117415	-0.149969615	0.333779181	-0.539012498	-0.24580379	0.381544285	-0.483614972	-0.170652041	0.12782313	-0.573223074	-0.036500988	0.245366366	-0.530373328	-0.085722909	0.145723244	-0.50337056	0.096940042	0.244513848	-0.515604568
